<?xml version="1.0" encoding="UTF-8" standalone="no"?>
<svg
   xmlns:dc="http://purl.org/dc/elements/1.1/"
   xmlns:cc="http://creativecommons.org/ns#"
   xmlns:rdf="http://www.w3.org/1999/02/22-rdf-syntax-ns#"
   xmlns:svg="http://www.w3.org/2000/svg"
   xmlns="http://www.w3.org/2000/svg"
   xmlns:xlink="http://www.w3.org/1999/xlink"
   xmlns:sodipodi="http://sodipodi.sourceforge.net/DTD/sodipodi-0.dtd"
   xmlns:inkscape="http://www.inkscape.org/namespaces/inkscape"
   contentScriptType="text/ecmascript"
   zoomAndPan="magnify"
   contentStyleType="text/css"
   version="1.1"
   width="160"
   preserveAspectRatio="xMidYMid meet"
   viewBox="0 0 160 160"
   height="160"
   x="0px"
   y="0px"
   id="svg2"
   inkscape:version="0.47 r22583"
   sodipodi:docname="qgn_note_memory.svg">
  <metadata
     id="metadata106">
    <rdf:RDF>
      <cc:Work
         rdf:about="">
        <dc:format>image/svg+xml</dc:format>
        <dc:type
           rdf:resource="http://purl.org/dc/dcmitype/StillImage" />
        <dc:title></dc:title>
      </cc:Work>
    </rdf:RDF>
  </metadata>
  <defs
     id="defs104">
    <inkscape:perspective
       sodipodi:type="inkscape:persp3d"
       inkscape:vp_x="0 : 20 : 1"
       inkscape:vp_y="0 : 1000 : 0"
       inkscape:vp_z="30 : 20 : 1"
       inkscape:persp3d-origin="15 : 13.333333 : 1"
       id="perspective108" />
    <linearGradient
       inkscape:collect="always"
       xlink:href="#SVGID_1_"
       id="linearGradient2985"
       gradientUnits="userSpaceOnUse"
       gradientTransform="translate(-786.0117,-2385.0264)"
       x1="800.31927"
       y1="2394.9609"
       x2="800.31927"
       y2="2398.7949" />
    <linearGradient
       inkscape:collect="always"
       xlink:href="#SVGID_2_"
       id="linearGradient2987"
       gradientUnits="userSpaceOnUse"
       gradientTransform="translate(-786.0117,-2385.0264)"
       x1="794.01562"
       y1="2402.252"
       x2="794.01562"
       y2="2409.8184" />
    <linearGradient
       inkscape:collect="always"
       xlink:href="#SVGID_3_"
       id="linearGradient2989"
       gradientUnits="userSpaceOnUse"
       gradientTransform="translate(-786.0117,-2385.0264)"
       x1="807.29388"
       y1="2405.5781"
       x2="807.29388"
       y2="2413.8496" />
    <linearGradient
       inkscape:collect="always"
       xlink:href="#SVGID_4_"
       id="linearGradient2991"
       gradientUnits="userSpaceOnUse"
       gradientTransform="translate(-494.0068,-1636.0156)"
       x1="507.543"
       y1="1660.8701"
       x2="522.81348"
       y2="1660.8701" />
    <linearGradient
       inkscape:collect="always"
       xlink:href="#SVGID_5_"
       id="linearGradient2993"
       gradientUnits="userSpaceOnUse"
       gradientTransform="translate(-786.0117,-2385.0264)"
       x1="787.03711"
       y1="2405.7715"
       x2="800.80469"
       y2="2405.7715" />
    <linearGradient
       inkscape:collect="always"
       xlink:href="#SVGID_6_"
       id="linearGradient2995"
       gradientUnits="userSpaceOnUse"
       gradientTransform="translate(-786.0117,-2385.0264)"
       x1="795.27148"
       y1="2396.9473"
       x2="805.4668"
       y2="2396.9473" />
    <linearGradient
       inkscape:collect="always"
       xlink:href="#SVGID_7_"
       id="linearGradient2997"
       gradientUnits="userSpaceOnUse"
       gradientTransform="matrix(0.7184,0.6956,0.6956,-0.7184,-1636.8193,-2158.2371)"
       x1="2702.4541"
       y1="-399.73441"
       x2="2702.4541"
       y2="-407.19531" />
    <linearGradient
       inkscape:collect="always"
       xlink:href="#SVGID_8_"
       id="linearGradient2999"
       gradientUnits="userSpaceOnUse"
       gradientTransform="matrix(0.7184,0.6956,0.6956,-0.7184,-1636.8193,-2158.2371)"
       x1="2702.5811"
       y1="-432.4082"
       x2="2702.5811"
       y2="-398.94141" />
  </defs>
  <sodipodi:namedview
     pagecolor="#ffffff"
     bordercolor="#666666"
     borderopacity="1"
     objecttolerance="10"
     gridtolerance="10"
     guidetolerance="10"
     inkscape:pageopacity="0"
     inkscape:pageshadow="2"
     inkscape:window-width="1020"
     inkscape:window-height="702"
     id="namedview102"
     showgrid="false"
     inkscape:zoom="2.875"
     inkscape:cx="80"
     inkscape:cy="80"
     inkscape:window-x="206"
     inkscape:window-y="244"
     inkscape:window-maximized="0"
     inkscape:current-layer="svg2" />
  <g
     id="g2914"
     transform="matrix(5.026087,0,0,5.026087,-21.005671,-54.259358)">
    <g
       transform="translate(5.2173913,6.6086957)"
       id="g4">
      <g
         id="g6">
        <rect
           style="fill:none"
           y="0"
           x="0"
           id="rect8"
           height="40"
           width="30" />
      </g>
      <g
         id="g10">
        <g
           id="g12">
          <linearGradient
             xlink:show="other"
             id="SVGID_1_"
             xlink:actuate="onLoad"
             xlink:type="simple"
             y2="2398.7949"
             gradientUnits="userSpaceOnUse"
             x2="800.31927"
             y1="2394.9609"
             gradientTransform="translate(-786.0117,-2385.0264)"
             x1="800.31927">
            <stop
               id="stop15"
               offset="0"
               stop-color="#212121" />
            <stop
               id="stop17"
               offset="1"
               stop-color="#000000" />
          </linearGradient>
          <circle
             d="m 16.225,11.878 c 0,1.05873 -0.85827,1.917 -1.917,1.917 -1.05873,0 -1.917,-0.85827 -1.917,-1.917 0,-1.05873 0.85827,-1.9169998 1.917,-1.9169998 1.05873,0 1.917,0.8582698 1.917,1.9169998 z"
             style="fill:url(#linearGradient2985)"
             sodipodi:ry="1.9170001"
             sodipodi:rx="1.9170001"
             sodipodi:cy="11.878"
             sodipodi:cx="14.308"
             id="circle19"
             cy="11.878"
             cx="14.308"
             r="1.9170001" />
          <linearGradient
             xlink:show="other"
             id="SVGID_2_"
             xlink:actuate="onLoad"
             xlink:type="simple"
             y2="2409.8184"
             gradientUnits="userSpaceOnUse"
             x2="794.01562"
             y1="2402.252"
             gradientTransform="translate(-786.0117,-2385.0264)"
             x1="794.01562">
            <stop
               id="stop22"
               offset="0"
               stop-color="#212121" />
            <stop
               id="stop24"
               offset="1"
               stop-color="#000000" />
          </linearGradient>
          <circle
             d="m 11.787,21.035 c 0,2.089293 -1.693707,3.783 -3.7830003,3.783 -2.0892932,0 -3.783,-1.693707 -3.783,-3.783 0,-2.089293 1.6937068,-3.783 3.783,-3.783 2.0892933,0 3.7830003,1.693707 3.7830003,3.783 z"
             style="fill:url(#linearGradient2987)"
             sodipodi:ry="3.783"
             sodipodi:rx="3.783"
             sodipodi:cy="21.035"
             sodipodi:cx="8.0039997"
             id="circle26"
             cy="21.035"
             cx="8.0039997"
             r="3.783" />
          <linearGradient
             xlink:show="other"
             id="SVGID_3_"
             xlink:actuate="onLoad"
             xlink:type="simple"
             y2="2413.8496"
             gradientUnits="userSpaceOnUse"
             x2="807.29388"
             y1="2405.5781"
             gradientTransform="translate(-786.0117,-2385.0264)"
             x1="807.29388">
            <stop
               id="stop29"
               offset="0"
               stop-color="#212121" />
            <stop
               id="stop31"
               offset="1"
               stop-color="#000000" />
          </linearGradient>
          <circle
             d="m 25.418,24.714001 c 0,2.28425 -1.851751,4.136 -4.136,4.136 -2.28425,0 -4.136001,-1.85175 -4.136001,-4.136 0,-2.28425 1.851751,-4.136 4.136001,-4.136 2.284249,0 4.136,1.85175 4.136,4.136 z"
             style="fill:url(#linearGradient2989)"
             sodipodi:ry="4.1360002"
             sodipodi:rx="4.1360002"
             sodipodi:cy="24.714001"
             sodipodi:cx="21.282"
             id="circle33"
             cy="24.714001"
             cx="21.282"
             r="4.1360002" />
        </g>
        <path
           style="fill-opacity:0.2;stroke-opacity:0.2"
           id="path35"
           d="m 28.561,25.54 c 0.005,-0.162 0.005,-0.284 0,-0.447 0.391002,-0.212999 0.766002,-0.448999 1.144002,-0.684 -0.167,-1.02 -0.451,-1.966999 -0.837,-2.924999 -0.450001,0.009 -0.9,0.012 -1.35,0.049 -0.077,-0.129998 -0.157,-0.256999 -0.24,-0.382998 0.212999,-0.389 0.398001,-0.790002 0.589,-1.189 -0.687999,-0.767 -1.437,-1.405 -2.277,-2 -0.377001,0.249001 -0.754999,0.495001 -1.114,0.768999 -0.135,-0.066 -0.271,-0.129999 -0.408002,-0.191 -0.022,-0.441 -0.09,-0.878999 -0.146999,-1.316999 -0.993999,-0.277 -1.969999,-0.407999 -3,-0.441999 -0.183001,0.406999 -0.374001,0.811 -0.518999,1.232999 -0.148,0.021 -0.295999,0.042 -0.444,0.063 -0.264999,-0.363001 -0.561001,-0.701 -0.853001,-1.041 -0.975999,0.330999 -1.871999,0.729999 -2.746,1.275998 0.069,0.437001 0.132999,0.875 0.229,1.306 -0.108999,0.099 -0.221001,0.197001 -0.332001,0.294001 -0.191,-0.078 -0.388,-0.143999 -0.586999,-0.212 C 15.547001,19.141 15.379001,18.606 15.168,18.075 15.096001,17.894001 15.475,17.33 15.552,17.130001 15.804,16.478 15.873,16.551 16.46,16.221 c 0.607,0.357001 1.26,0.585 1.926,0.801001 0.601,-0.603001 1.098,-1.241 1.521,-1.979999 -0.24,-0.444 -0.496,-0.879 -0.811001,-1.274 -0.347,-0.436 -0.375999,-0.347001 -0.382999,-0.893 -0.002,-0.115 0.025,-0.379 0.025,-0.384 0.618,-0.351 1.144001,-0.807 1.664,-1.284 -0.238001,-0.816 -0.535,-1.567001 -0.98,-2.295 -0.395999,-0.004 -0.791,-0.010001 -1.186001,0.029 -0.325001,0.033 -0.648001,0.09 -0.965,0.174 -0.200001,-0.166001 -0.403,-0.327 -0.625,-0.463001 0,-0.708 -0.124001,-1.386 -0.282999,-2.0709997 C 15.545,6.365001 14.748,6.266001 13.901999,6.254001 13.702999,6.592001 13.501,6.9280014 13.337,7.2850013 13.196,7.5930014 13.078,7.911001 12.988,8.237001 12.742,8.320002 12.509,8.424002 12.279,8.546001 11.672,8.188002 11.019,7.9610014 10.352,7.7460012 9.75,8.35 9.255,8.988 8.829,9.726 c 0.247,0.439999 0.5,0.878 0.815,1.274999 0.3030005,0.382 0.463,0.367 0.383,0.877 0.002,0.112001 -0.025,0.4 -0.025,0.398 -0.516,0.293 -0.991,0.654 -1.422,1.061 C 8.004,13.3 7.444,13.33 6.871,13.376 6.62,14.004001 6.3869996,14.632 6.238,15.295 6.085,15.337 5.965,15.372 5.819,15.431 5.3479996,14.969999 4.83,14.572 4.302,14.181 3.641,14.557 3.04,14.994 2.44,15.46 2.6200001,16.122 2.801,16.781 3.075,17.412 2.989,17.527 2.903,17.643002 2.819,17.76 2.155,17.658 1.488,17.641 0.819,17.628 0.55200005,18.338 0.306,19.04 0.13999999,19.781 0.659,20.218 1.185,20.633 1.77,20.98 1.768,21.125 1.766,21.257 1.7689999,21.402 1.184,21.714 0.64,22.083 0.1,22.466 c 0.167,0.742 0.38499998,1.447 0.667,2.153999 0.681,0.04 1.35,0.063 2.032,0.007 0.083,0.118 0.168,0.233 0.255,0.347999 -0.293,0.595 -0.513,1.218001 -0.732,1.842 0.582,0.490999 1.172,0.937999 1.821,1.337999 0.573,-0.362 1.135,-0.73 1.646,-1.18 C 5.852,27 5.914,27.021 5.97,27.043 L 5.965,27.04 c 0.078,0.026 0.157,0.046 0.236,0.073 0.1090004,0.657 0.3000004,1.289 0.496,1.924 0.755,0.054 1.493001,0.061 2.248,0.003 0.251,-0.628999 0.486,-1.256 0.633,-1.92 0.161,-0.051 0.270001,-0.083 0.425,-0.143998 0.469,0.462 0.988,0.858 1.516,1.247998 0.651,-0.372998 1.246,-0.798999 1.838,-1.260999 0.255,0.071 0.507,0.132999 0.766,0.191 0.048,0.155001 0.072,0.278 0.124,0.438 -0.313,0.312999 -0.605,0.642999 -0.899,0.974001 0.439999,0.934 0.979999,1.76 1.625,2.565 0.432,-0.132 0.861999,-0.264999 1.283,-0.429 0.110001,0.100999 0.222,0.2 0.334,0.298999 -0.098,0.431 -0.163,0.867001 -0.232,1.302999 0.872999,0.547 1.775,0.944 2.747999,1.277 0.294001,-0.34 0.593001,-0.675997 0.855,-1.04 0.148001,0.02 0.297001,0.04 0.444999,0.062 0.149,0.424 0.336001,0.834 0.511,1.248 1.031999,-0.04 2.006,-0.165 3.002001,-0.443 0.058,-0.438 0.114,-0.875 0.146999,-1.315997 0.138001,-0.061 0.274,-0.124001 0.41,-0.188999 0.358,0.273998 0.736999,0.52 1.113001,0.768001 0.844999,-0.588001 1.590999,-1.232 2.275999,-2 -0.188999,-0.399 -0.379,-0.797001 -0.589001,-1.186001 0.082,-0.125999 0.162001,-0.253999 0.24,-0.382999 0.448999,0.03 0.899,0.037 1.35,0.047 0.386999,-0.957001 0.672001,-1.903999 0.834999,-2.924 C 29.325,25.99 28.952,25.75 28.561,25.54" />
        <path
           style="fill-opacity:0.4;stroke-opacity:0.4"
           id="path37"
           d="m 27.997,25.852 c 0.03,-0.371001 0.016,-0.724002 0,-1.095 0.379999,-0.191 0.749,-0.403 1.108,-0.631 -0.102,-0.722 -0.313,-1.425 -0.604,-2.093001 -0.429001,0.005 -0.857,0.023 -1.283001,0.074 -0.167999,-0.325 -0.382,-0.622998 -0.591999,-0.922 0.216999,-0.364001 0.424999,-0.742001 0.587999,-1.133 -0.483999,-0.545999 -1.031999,-1.02 -1.635,-1.433 -0.361,0.231 -0.711001,0.479 -1.041001,0.753999 -0.320998,-0.179001 -0.656,-0.330999 -1.000999,-0.455999 -0.015,-0.426001 -0.058,-0.851 -0.117001,-1.273001 -0.705999,-0.198999 -1.417,-0.288 -2.149,-0.312 -0.172001,0.391001 -0.333,0.784 -0.467001,1.19 -0.365,0.021 -0.736,0.069 -1.093,0.153 -0.243,-0.351 -0.505,-0.684999 -0.782,-1.009 -0.69,0.233999 -1.361999,0.511999 -1.976999,0.909 0.056,0.420999 0.136999,0.841999 0.246,1.252001 -0.295999,0.211 -0.58,0.455 -0.833,0.717001 -0.395001,-0.166001 -0.799,-0.308001 -1.209,-0.430001 -0.454,0.565001 -0.877,1.169001 -1.166,1.837 0.065,0.073 0.129,0.148001 0.198,0.219 -0.234,-0.153 -0.473,-0.298 -0.715,-0.43 0.035,-0.358999 0.023,-0.712999 10e-4,-1.072001 0.569,-0.271 1.111,-0.593 1.62,-0.965 -0.1,-0.479 -0.251,-0.938 -0.433,-1.392 -0.644,-0.052 -1.293999,-0.035 -1.935,0.049 -0.18,-0.31 -0.392,-0.595 -0.624,-0.869 0.208001,-0.378 0.38,-0.763 0.537,-1.166 0.016,0.475 0.089,0.938999 0.191,1.403 0.558,0.152 1.114,0.209999 1.691,0.215 0.354,-0.573999 0.622,-1.202999 0.766,-1.863001 0.416,-0.104 0.818999,-0.274999 1.175,-0.515 0.545,0.359999 1.144001,0.624999 1.768,0.814999 0.413,-0.399999 0.76,-0.857999 1.041,-1.359999 -0.312,-0.597 -0.733,-1.139 -1.229,-1.594 0.120001,-0.418 0.163999,-0.843001 0.141001,-1.276 0.59,-0.296 1.114,-0.685001 1.597999,-1.131001 -0.16,-0.557 -0.382,-1.073 -0.67,-1.575 -0.674999,0 -1.340999,0.065 -1.986,0.275 -0.298,-0.312 -0.650999,-0.563 -1.034,-0.761 0.038,-0.661 -0.049,-1.2969995 -0.181,-1.9429994 -0.557,-0.151 -1.118,-0.2150002 -1.694,-0.218 -0.347,0.5809999 -0.621001,1.2040004 -0.766,1.8670004 -0.415,0.104 -0.817,0.278 -1.173,0.514 -0.546001,-0.362 -1.146,-0.625 -1.771,-0.816 -0.414,0.399999 -0.755,0.861 -1.041001,1.359 0.315,0.597 0.732001,1.142 1.232001,1.596 -0.122,0.418 -0.158,0.844 -0.143,1.277 -0.585,0.294 -1.12,0.681 -1.596,1.129 0.154001,0.557999 0.382,1.075 0.669,1.576999 0.585,0.005 1.165,-0.048 1.733,-0.198 -0.435001,0.292 -0.839,0.609001 -1.21,0.964001 -0.332,-0.142 -0.67,-0.251 -1.022001,-0.331 -0.085,-0.627 -0.227999,-1.243 -0.423999,-1.845 C 8.22,13.854 7.74,13.84 7.257,13.888 7.012,14.485 6.827,15.099999 6.708,15.735 6.354,15.816999 6.0210004,15.927 5.6860003,16.067 5.2530003,15.61 4.7760005,15.200999 4.267,14.83 c -0.4309998,0.229999 -0.8159998,0.53 -1.1969998,0.833 0.167,0.626 0.368,1.243 0.6519999,1.827 -0.2390001,0.264 -0.4479999,0.556 -0.6269998,0.863 -0.6269999,-0.115 -1.26,-0.162 -1.8960001,-0.172 -0.1779999,0.452999 -0.34799995,0.908 -0.447,1.386 0.49,0.419 1.02,0.782998 1.5860001,1.09 -0.035,0.357 -0.033,0.718 -9.999e-4,1.075 C 1.771,22 1.213,22.311 0.72,22.697 c 0.102,0.479 0.252,0.938 0.434,1.392 0.6440001,0.055 1.294,0.04 1.935,-0.046 0.181,0.311002 0.391,0.598 0.626,0.869 -0.304,0.556 -0.538,1.142 -0.747,1.738002 0.375,0.315 0.759,0.606 1.1749996,0.864999 C 4.687,27.165 5.205,26.786001 5.6729994,26.337002 c 0.3319996,0.142999 0.671,0.252001 1.0229996,0.332001 0.083,0.625 0.219,1.249 0.423,1.846 0.482,0.039 0.967,0.053 1.449,-0.002 0.255999,-0.589 0.4329995,-1.215999 0.55,-1.847 0.352,-0.08 0.69,-0.19 1.022,-0.333 0.431,0.458 0.908,0.870001 1.418001,1.239 0.432,-0.226999 0.817,-0.531 1.198,-0.833 -0.168001,-0.625999 -0.367,-1.243 -0.653,-1.826999 0.239,-0.263001 0.45,-0.557 0.626,-0.864001 0.267,0.049 0.538,0.088 0.809,0.115999 -0.068,0.023 -0.137,0.044 -0.207,0.062 -0.104,0.715 -0.093,1.447 -0.002,2.162 0.407,0.123 0.822001,0.221001 1.242,0.293 0.074,0.358998 0.187,0.709998 0.316,1.052999 -0.313,0.288 -0.606,0.598999 -0.883,0.920999 0.293999,0.67 0.717,1.265 1.166,1.838 0.404,-0.142 0.813,-0.265 1.209,-0.431 0.25,0.263 0.538,0.498 0.831,0.711 -0.106002,0.413 -0.182,0.831 -0.248,1.252 0.609,0.405 1.287,0.677 1.976,0.916 0.279,-0.321997 0.542999,-0.657 0.783,-1.009998 0.356002,0.08 0.727,0.135998 1.092,0.153001 0.133,0.408001 0.299999,0.8 0.472,1.192002 0.73,-0.029 1.438,-0.115002 2.143,-0.316002 0.06,-0.423 0.101,-0.847 0.117,-1.273001 0.345,-0.125999 0.681,-0.274999 1.001,-0.455 0.334,0.268999 0.681999,0.518 1.041,0.75 0.595,-0.422001 1.153,-0.878999 1.631,-1.433 -0.181999,-0.385001 -0.37,-0.766002 -0.59,-1.129999 0.222,-0.290001 0.427,-0.598999 0.596,-0.923001 0.427001,0.049 0.853002,0.06 1.281001,0.073 0.267,-0.677999 0.511999,-1.365 0.601999,-2.092001 C 28.748,26.25 28.378,26.04 27.997,25.852" />
        <linearGradient
           xlink:show="other"
           id="SVGID_4_"
           xlink:actuate="onLoad"
           xlink:type="simple"
           y2="1660.8701"
           gradientUnits="userSpaceOnUse"
           x2="522.81348"
           y1="1660.8701"
           gradientTransform="translate(-494.0068,-1636.0156)"
           x1="507.543">
          <stop
             id="stop40"
             offset="0"
             stop-color="#e8e8e8" />
          <stop
             id="stop42"
             offset="1"
             stop-color="#a4a4a4" />
        </linearGradient>
        <path
           style="fill:url(#linearGradient2991)"
           id="path44"
           d="m 27.749,24.846 c -0.011,-0.236 -0.021,-0.476 -0.041,-0.712999 0.371,-0.177 0.737,-0.378 1.099,-0.601999 -0.095,-0.575001 -0.270001,-1.143 -0.486,-1.68 -0.428,0.006 -0.850001,0.033 -1.258,0.09 -0.192,-0.436001 -0.485,-0.820999 -0.767,-1.201 0.219999,-0.354 0.412,-0.715 0.597,-1.100001 C 26.505,19.204 26.053,18.836 25.58,18.499 c -0.354,0.228001 -0.695,0.489 -1.012,0.753 -0.402,-0.263 -0.854999,-0.420999 -1.297,-0.599 -0.002,-0.419 -0.039,-0.827 -0.096,-1.246 -0.56,-0.159 -1.144002,-0.227 -1.724,-0.248 -0.171,0.378 -0.315,0.773001 -0.438,1.175 -0.475,0.026 -0.95,0.075 -1.41,0.202999 C 19.374,18.196 19.12,17.846998 18.845001,17.532 c -0.552999,0.188999 -1.093001,0.42 -1.583999,0.729 0.067,0.42 0.149999,0.822 0.266,1.224 -0.375,0.291001 -0.764999,0.573 -1.073999,0.938 -0.378,-0.167999 -0.773,-0.315 -1.183,-0.438999 -0.359999,0.457001 -0.687999,0.941999 -0.939999,1.469 0.281999,0.316 0.572,0.608999 0.880999,0.889999 -0.156,0.449 -0.333999,0.896 -0.397999,1.371 -0.406001,0.068 -0.815,0.159001 -1.229001,0.271 -0.063,0.576 -0.063,1.16 0,1.738001 0.413001,0.115 0.822001,0.207001 1.229001,0.271 0.054,0.475001 0.244,0.924999 0.397999,1.372 -0.309,0.271999 -0.599,0.566999 -0.880999,0.888001 0.253,0.527999 0.58,1.016 0.939999,1.472999 0.41,-0.122999 0.803001,-0.271999 1.183,-0.438 0.313,0.363001 0.697,0.646 1.073999,0.937001 -0.111999,0.402 -0.194999,0.802999 -0.266,1.223998 0.495,0.311002 1.035998,0.543 1.587998,0.729 0.271,-0.315 0.522,-0.663 0.754,-1.006 0.458,0.131 0.937,0.178 1.41,0.203 0.120001,0.399 0.269,0.796 0.438,1.178 0.577,-0.021 1.161,-0.092 1.724,-0.249 0.057,-0.422 0.094,-0.824 0.096,-1.246 0.443,-0.172 0.896,-0.336 1.297,-0.599 0.315001,0.268998 0.656,0.520999 1.012,0.753 0.473,-0.337 0.925,-0.71 1.313,-1.145001 C 26.71,29.682999 26.515999,29.32 26.295,28.967 c 0.278,-0.381001 0.577,-0.767001 0.768,-1.202 0.41,0.053 0.83,0.082 1.258,0.09 0.218,-0.541 0.392999,-1.103001 0.486,-1.677 -0.363002,-0.224001 -0.729,-0.425 -1.101,-0.604 0.026,-0.254 0.034,-0.492 0.043,-0.728 m -4.964,3.413 c -1.839,0.836001 -4.061001,0.03 -4.939,-1.785999 -0.931,-1.924999 0,-4.281999 1.965,-5.093 C 24.213,19.564 27.098,26.31 22.785,28.259" />
        <path
           style="fill:#ffffff;fill-opacity:0.3;stroke-opacity:0.3"
           id="path46"
           d="m 26.475,21.46 c -0.146,-0.252002 -0.342,-0.475001 -0.51,-0.712 0.22,-0.341 0.419,-0.695 0.6,-1.059 -0.299,-0.315001 -0.635,-0.598 -0.99,-0.858 -0.340999,0.235 -0.665,0.493 -0.981,0.76 C 24.098999,19.247 23.556,19.056 22.999,18.838999 22.997,18.431 22.976,18.023998 22.925,17.619 c -0.42,-0.106001 -0.854999,-0.161 -1.297001,-0.185 -0.159,0.378 -0.29,0.768 -0.410999,1.16 -0.590001,0.027 -1.166001,0.082 -1.733,0.257 -0.229,-0.344 -0.464001,-0.683 -0.725001,-1.004 -0.416,0.15 -0.819999,0.326 -1.194999,0.544 0.072,0.401 0.166999,0.794001 0.278,1.186002 -0.459,0.374 -0.934001,0.704999 -1.313,1.166999 -0.381001,-0.166 -0.763,-0.325001 -1.158,-0.451 -0.267999,0.354 -0.510999,0.717001 -0.708,1.104 0.272,0.302999 0.566,0.583999 0.871,0.853001 -0.201999,0.548 -0.418,1.1 -0.47,1.687 -0.411,0.063 -0.819,0.14 -1.221,0.247999 -0.042,0.436001 -0.029,0.874001 0,1.311001 0.401,0.104 0.810001,0.192 1.221,0.247999 0.034,0.372999 0.13,0.743999 0.254,1.097001 l 2.038,-0.916001 C 16.122002,21.597 22.188,18.892002 24.625,22.653002 L 26.66,21.735003 C 26.593,21.652 26.533,21.561 26.475,21.46" />
        <linearGradient
           xlink:show="other"
           id="SVGID_5_"
           xlink:actuate="onLoad"
           xlink:type="simple"
           y2="2405.7715"
           gradientUnits="userSpaceOnUse"
           x2="800.80469"
           y1="2405.7715"
           gradientTransform="translate(-786.0117,-2385.0264)"
           x1="787.03711">
          <stop
             id="stop49"
             offset="0"
             stop-color="#e8e8e8" />
          <stop
             id="stop51"
             offset="1"
             stop-color="#a4a4a4" />
        </linearGradient>
        <path
           style="fill:url(#linearGradient2993)"
           id="path53"
           d="m 13.236,20.743 c -0.019,-0.229 -0.01,-0.465 -0.051,-0.695 0.548001,-0.25 1.106,-0.561 1.609001,-0.92 -0.077,-0.345 -0.187001,-0.681 -0.316,-1.01 -0.639,-0.042 -1.286001,-0.003 -1.885001,0.088 -0.248999,-0.4 -0.491,-0.788 -0.824999,-1.125 0.314,-0.538 0.555999,-1.088001 0.762999,-1.689001 -0.267,-0.227999 -0.549,-0.444 -0.85,-0.628 -0.544,0.346 -1.036,0.738 -1.478,1.182 C 9.7960005,15.731999 9.327,15.593999 8.876,15.513 8.803,14.917 8.681001,14.292 8.501,13.7 8.146001,13.674 7.7960005,13.664 7.4470005,13.692 c -0.237,0.589 -0.4029999,1.221 -0.5009999,1.822001 -0.4510002,0.081 -0.921,0.218 -1.3280001,0.433 C 5.2060003,15.491 4.7450004,15.075001 4.2440004,14.701 c -0.306,0.175 -0.5840001,0.397001 -0.862,0.61 0.172,0.635 0.382,1.212 0.6700001,1.771 -0.326,0.346001 -0.5669999,0.731001 -0.822,1.129 -0.589,-0.122 -1.2079999,-0.190001 -1.842,-0.205999 -0.125,0.33 -0.253,0.659999 -0.332,1.006 0.49,0.412 1.0319998,0.757 1.5800001,1.042 -0.081,0.44 -0.078,0.954 0,1.395 -0.5469999,0.248 -1.107,0.558 -1.61,0.92 0.077,0.344 0.1870001,0.681 0.3170001,1.005 0.6389999,0.042 1.2869999,0.006 1.8849999,-0.083 0.2550002,0.398001 0.5,0.775999 0.8220001,1.125 -0.31,0.537001 -0.55,1.087999 -0.761,1.688999 0.2679999,0.225001 0.5480001,0.441 0.8500003,0.625 0.544,-0.349001 1.036,-0.738001 1.479,-1.184999 0.415,0.211001 0.871,0.351999 1.328,0.437 0.068,0.597001 0.193,1.222001 0.375,1.813 0.355,0.023 0.704001,0.035 1.052,0.007 0.234,-0.587 0.404,-1.218001 0.503,-1.819001 0.452,-0.081 0.921,-0.218 1.327,-0.436 0.412,0.455999 0.872,0.871999 1.373,1.242 0.307,-0.172001 0.583,-0.396 0.86,-0.604999 -0.17,-0.636999 -0.38,-1.215 -0.669,-1.771 0.327,-0.344999 0.568,-0.729 0.824001,-1.125 0.586999,0.120001 1.206999,0.187999 1.84,0.201 0.123,-0.326 0.255,-0.656999 0.329,-1.003999 -0.49,-0.408 -1.031999,-0.756001 -1.579,-1.041001 C 13.227,21.209 13.22,20.975 13.236,20.743 M 8.928,23.866 C 4.8820004,25.175 2.9060006,18.986 6.899,17.626999 10.94,16.307 12.922,22.508 8.928,23.866" />
        <path
           style="fill:#ffffff;fill-opacity:0.3;stroke-opacity:0.3"
           id="path55"
           d="m 5.036,22.83 c -1.0450003,-1.41 -0.8470003,-3.456 0.421,-4.662 1.5209997,-1.445 4.102,-1.244 5.328,0.481 0,0.002 0,0.002 0,0.003 l 1.202,-0.875 C 11.82,17.54 11.627,17.324001 11.424999,17.117 11.737,16.594 11.994999,16.044 12.204,15.473001 12.035,15.337001 11.86,15.206 11.683,15.086 11.163,15.433001 10.691,15.833 10.252999,16.277 9.756,15.993 9.19,15.829 8.626999,15.742001 c -0.06,-0.602001 -0.17,-1.202 -0.339,-1.783 -0.217,-0.014 -0.438,-0.022 -0.6549996,-0.007 C 7.4169993,14.534 7.2829995,15.135 7.1799994,15.746 c -0.5630004,0.087 -1.132,0.25 -1.625,0.540001 -0.4029999,-0.458999 -0.8460004,-0.882 -1.33,-1.257 -0.1789999,0.116 -0.3540001,0.244001 -0.5310001,0.383001 0.171,0.595 0.4000001,1.165 0.69,1.712 -0.4149999,0.430001 -0.7,0.889 -1.0269999,1.384001 -0.5910001,-0.118999 -1.1820002,-0.204 -1.785,-0.228 -0.079,0.214 -0.1519999,0.416999 -0.209,0.625 0.489,0.385999 1.0209999,0.711 1.5780001,0.988 -0.1199999,0.551001 -0.1170001,1.158 9.999e-4,1.709 -0.559,0.247999 -1.103,0.528999 -1.608,0.875 0.055,0.211001 0.122,0.42 0.1979999,0.627001 0.6110001,0.032 1.2250002,-0.021 1.8279999,-0.119 0.1600001,0.239001 0.296,0.491 0.4649998,0.725001 C 4.229,23.418 4.634,23.126 5.036,22.83" />
        <linearGradient
           xlink:show="other"
           id="SVGID_6_"
           xlink:actuate="onLoad"
           xlink:type="simple"
           y2="2396.9473"
           gradientUnits="userSpaceOnUse"
           x2="805.4668"
           y1="2396.9473"
           gradientTransform="translate(-786.0117,-2385.0264)"
           x1="795.27148">
          <stop
             id="stop58"
             offset="0"
             stop-color="#e8e8e8" />
          <stop
             id="stop60"
             offset="1"
             stop-color="#a4a4a4" />
        </linearGradient>
        <path
           style="fill:url(#linearGradient2995)"
           id="path62"
           d="m 17.727,13.065 c 0.170999,-0.488 0.219999,-1.015001 0.167999,-1.529001 0.561001,-0.26 1.092001,-0.607999 1.573,-1.05 -0.122,-0.423 -0.290001,-0.834 -0.514999,-1.213 -0.674,-0.006 -1.323,0.104 -1.916001,0.317 -0.333,-0.398 -0.771,-0.6949995 -1.237,-0.915 0.052,-0.606 0.019,-1.25 -0.123999,-1.8829997 -0.426,-0.1119999 -0.864001,-0.1589999 -1.303001,-0.1659998 -0.344,0.585 -0.569999,1.203 -0.688,1.8159995 C 13.181,8.554 12.69,8.749 12.278,9.065 11.769,8.707 11.204,8.427 10.582,8.226999 c -0.313,0.313 -0.568,0.67 -0.801,1.049 0.335,0.59 0.755,1.097 1.235,1.503 -0.163,0.492 -0.222,1.010001 -0.169,1.526 -0.559,0.262 -1.092,0.61 -1.575,1.051 0.122,0.423 0.292,0.836 0.516,1.214 0.672,0.005 1.323,-0.105 1.915,-0.318 0.334,0.398 0.77,0.693 1.236,0.916 -0.052,0.608 -0.016,1.251 0.128,1.884001 0.425001,0.112 0.861,0.158001 1.301,0.165001 0.344,-0.584999 0.574,-1.200001 0.687,-1.816 0.502,-0.113 0.997,-0.306 1.408001,-0.623 0.507999,0.362 1.073999,0.637999 1.695999,0.838 0.312,-0.313 0.571,-0.667 0.799,-1.045999 C 18.623,13.978 18.204,13.472 17.727,13.065 M 15.87,12.087 c -0.063,0.521 -0.399,1.006 -0.895,1.214 -0.477,0.219 -1.081999,0.149999 -1.496,-0.164 -0.438,-0.313 -0.663,-0.856 -0.609,-1.384 0.063,-0.524999 0.402,-1.009 0.896,-1.215 0.474,-0.218 1.081,-0.149999 1.493,0.165 0.44,0.313 0.665,0.86 0.611,1.384" />
        <path
           style="fill:#ffffff;fill-opacity:0.3;stroke-opacity:0.3"
           id="path64"
           d="M 16.303,9.283 C 16.059,9.101 15.785999,8.97 15.511999,8.842 c 0.068,-0.609 0.051,-1.222 -0.069,-1.825 -0.298,-0.065 -0.606,-0.1 -0.909001,-0.112 -0.305999,0.555 -0.493,1.144 -0.607,1.765 -0.606,0.131 -1.15,0.346 -1.639,0.736 -0.505,-0.3599995 -1.038,-0.658 -1.626,-0.863 -0.205,0.224 -0.389,0.473 -0.556,0.735 0.329,0.544 0.748,1.006 1.235,1.411 -0.215,0.58 -0.282,1.172 -0.196,1.785 -0.563,0.256 -1.085,0.567 -1.554,0.973 0.095999,0.296 0.215,0.581 0.359999,0.85 0.635001,-0.013 1.251001,-0.144 1.845001,-0.366 0.189,0.234999 0.402,0.444 0.644,0.626 l 0.880999,-1.199 c -0.75,-0.537 -0.939,-1.604 -0.458999,-2.379 0.253,-0.409 0.673,-0.703 1.146,-0.801 0.302,-0.062 0.621999,-0.044 0.916,0.05 -0.158,-0.05 0.698,0.26 0.505,0.26 l 0.88,-1.1990005 C 16.305,9.285 16.303,9.283 16.303,9.283" />
      </g>
    </g>
    <g
       transform="translate(5.2173913,6.6086957)"
       id="g66">
      <g
         id="g68">
        <g
           id="g70">
          <g
             id="g72">
            <path
               style="fill-opacity:0.2;stroke-opacity:0.2"
               id="path74"
               d="m 29.35,12.418 c 0,-1.774999 -0.922,-3.05 -2.014999,-4.331 L 27.038,8.816999 l -0.289,0.004 c -0.312,0.7580005 -0.618,1.516 -0.93,2.274 -0.052,0.12 -0.152,0.578 -0.298,0.595001 -0.512,0.058 -0.655,0.18 -0.961,-0.226 C 24.378,11.222 24.182999,11.122 24.303999,10.847 24.488998,10.431 24.671,10.016 24.855,9.6 25.168,8.892 25.48,8.184 25.793,7.4760003 23.501999,7.137 21.182999,7.5220003 19.897,9.709001 c -0.245001,-0.108 -0.491,-0.214 -0.739001,-0.318 -0.106001,0.196 -0.697,0.92 -0.569,1.165 0.155001,0.300999 0.205,0.637999 0.205,0.974 0.01,1.139 -0.465,2.298 -0.938,3.312999 -0.479999,1.026 -0.972999,1.94 -1.780001,2.717001 -1.918999,1.847 -3.838999,3.694001 -5.750999,5.549 -2.0410005,1.980999 -4.093,3.955999 -6.075,5.998001 -1.156,1.190001 -2.266,2.603001 -1.1929998,4.292 0.5409998,0.852001 1.4770002,1.262001 2.4539998,1.358002 0.456,0.045 1.494,-0.411 1.7540004,-0.209 3.5360006,-3.955999 7.0389996,-7.945 10.5909996,-11.888 1.722001,-1.909001 3.270001,-3.979 5.857001,-4.714001 0.927999,-0.264 1.823999,-0.33 2.698,-0.759001 0.767,-0.375999 1.365,-0.968 1.978,-1.549 l -0.086,-0.033 C 29,14.661 29.35,13.537 29.35,12.418 M 5.735,32.561 C 5.681,32.555 5.6270003,32.544 5.5740004,32.533 l -0.165,0.579 0,0 0.1620002,-0.579 c -0.017,-0.005 -0.021,-0.008 -0.021,-0.008 l 0,0.001 c -0.737,-0.230998 -0.5240002,-1.075 0.017,-1.37 C 6.275,30.926 6.44,32.366 5.735,32.561" />
            <path
               style="fill-opacity:0.4;stroke-opacity:0.4"
               id="path76"
               d="M 27.62,9.355 27.52,9.241 27.45,9.416 27.163,9.42 c -0.34,0.828 -0.681,1.656 -1.021,2.483 -0.239,0.584 -1.168,0.583 -1.717,0.359 C 24.157,12.153 23.863998,11.538 23.696,11.308001 23.47,11.005 23.633,10.886001 23.788,10.538 24.17,9.679 24.551001,8.819 24.934,7.96 23.018,7.638 20.955,8.67 20.205,10.488 19.914,10.367 19.626,10.248 19.336001,10.125 l 0.095,0.185 -0.281,0.005 c 1.170999,2.283 -2.021,7.113 -2.021,7.113 l -0.027,-0.01 c -0.172001,0.267999 -0.506,0.496 -0.732,0.712999 -0.672,0.646 -1.344,1.292 -2.014,1.938 -1.877,1.812 -3.752,3.622 -5.616,5.444 -1.5100003,1.476 -3.0360003,2.940001 -4.4840003,4.479 -0.934,0.989 -1.5149999,2.354 -0.3510001,3.479 0.9599998,0.929 2.1960004,0.658 3.2650001,0.286 3.1319993,-3.329 6.0759993,-6.859001 9.1300003,-10.264 1.249001,-1.393 2.485001,-2.802 3.780001,-4.149 1.136,-1.183 2.754,-1.866 4.333,-2.196001 0.334995,-0.07 2.379998,-0.429 2.379998,-0.899998 0.163999,-0.134002 0.327998,-0.267001 0.492,-0.401001 -0.004,-10e-4 -0.009,-0.003 -0.015,-0.005 C 29.075,14.153 29.229,11.243 27.62,9.355 M 5.41,33.111 c -1.332,-0.392 -1.1940004,-2.446 0.204,-2.589 1.744,0 1.414,3.063 -0.204,2.589" />
            <linearGradient
               xlink:show="other"
               id="SVGID_7_"
               xlink:actuate="onLoad"
               xlink:type="simple"
               y2="-407.19531"
               gradientUnits="userSpaceOnUse"
               x2="2702.4541"
               y1="-399.73441"
               gradientTransform="matrix(0.7184,0.6956,0.6956,-0.7184,-1636.8193,-2158.2371)"
               x1="2702.4541">
              <stop
                 id="stop79"
                 offset="0"
                 stop-color="#bcbab7" />
              <stop
                 id="stop81"
                 offset="1"
                 stop-color="#69665d" />
            </linearGradient>
            <path
               style="fill:url(#linearGradient2997)"
               id="path83"
               d="m 28.107,10.25 c -1.264,1.123 -2.854,2.49 -2.854,2.49 L 23.43,10.303 24.791,7.226 c -1.245,-0.1880004 -2.563,0.208 -3.506,1.182999 -1.553,1.602001 -1.509,4.158 0.093,5.71 1.603,1.551 4.159,1.512001 5.712,-0.092 C 28.094,12.992 28.43,11.556 28.107,10.25 z" />
            <path
               style="fill:#ffffff;fill-opacity:0.5;stroke-opacity:0.5"
               id="path85"
               d="M 24.792,7.227 C 23.546999,7.039 22.23,7.4350004 21.286,8.41 c -0.369,0.382 -0.649,0.819 -0.838,1.285 0.998,0.158 2.014,0.213999 3.013,0.542 l 1.331,-3.01 z" />
            <linearGradient
               xlink:show="other"
               id="SVGID_8_"
               xlink:actuate="onLoad"
               xlink:type="simple"
               y2="-398.94141"
               gradientUnits="userSpaceOnUse"
               x2="2702.5811"
               y1="-432.4082"
               gradientTransform="matrix(0.7184,0.6956,0.6956,-0.7184,-1636.8193,-2158.2371)"
               x1="2702.5811">
              <stop
                 id="stop88"
                 offset="0"
                 stop-color="#bcbab7" />
              <stop
                 id="stop90"
                 offset="1"
                 stop-color="#69665d" />
            </linearGradient>
            <path
               style="fill:url(#linearGradient2999)"
               id="path92"
               d="m 21.209,17.536 c 0.059,-0.03 0.122999,-0.072 0.202999,-0.13 9.99e-4,0 9.99e-4,-10e-4 9.99e-4,-10e-4 0.185,-0.117 0.367001,-0.229 0.540002,-0.332 1.215999,-0.638 2.809,-0.888 2.809,-0.888 l 0.002,0 c 0.951,-0.154 1.865,-0.604001 2.588,-1.350001 1.674999,-1.731 1.732,-4.431 0.198999,-6.228001 l -1.183001,2.883 -1.650998,0.189 -0.293,-0.125 -4.595,-1.929 c -9.99e-4,0 -9.99e-4,10e-4 -9.99e-4,0.002 L 19.534,9.501998 c 1.171,2.283 -2.021999,7.113 -2.021999,7.113 l -0.029,-0.011 c -0.006,0.013 -0.014,0.023 -0.021,0.028 C 17.331,16.767 6.438,27.188 4.387,29.444 4.335,29.489 4.283,29.538 4.235,29.587 3.4,30.45 3.4220002,31.827 4.284,32.661 c 0.787,0.762 2,0.813 2.842,0.154 0.012,0.012 0.018,0.018 0.018,0.018 0,0 0.034,-0.041 0.096,-0.106 0.039,-0.036 0.08,-0.071 0.1160002,-0.11 C 7.4410005,32.529 7.5160003,32.436 7.583,32.344 9.803,29.834002 19.702,18.671001 20.328,18.171001 20.557,17.976 20.876,17.752 21.209,17.536 z M 4.794,32.056 C 4.23,31.51 4.215,30.609 4.761,30.043999 5.307,29.480999 6.209,29.467 6.774,30.012999 7.3380003,30.56 7.353,31.46 6.806,32.024 6.26,32.587 5.359,32.603 4.794,32.056 z" />
            <path
               style="fill:#ffffff;fill-opacity:0.5;stroke-opacity:0.5"
               id="path94"
               d="m 27.35,14.834 c 1.674,-1.731 1.732,-4.431 0.199,-6.228001 l -1.183,2.882999 -1.649,0.189001 -0.296,-0.125 -4.592001,-1.929 c -9.99e-4,0 -9.99e-4,0.001 -9.99e-4,0.002 l -0.294002,-0.125 c 0.315001,0.619001 0.313,1.425001 0.142001,2.271 l 7.552999,3.186 C 27.266,14.917 27.307,14.876 27.35,14.834 z" />
            <path
               style="fill:#ffffff"
               id="path96"
               d="m 4.168,29.524 c 3.2980006,-3.556999 6.900001,-6.859 10.392,-10.226 0.942001,-0.908 1.903001,-1.799999 2.829,-2.725 0.646,-0.644 1.115,-1.844 1.488,-2.697001 0.605,-1.388 1.23,-3.123 0.458001,-4.559999 1.691999,0.719 3.392,1.424 5.089001,2.136 0.445998,0.187999 1.77,0.229 1.965,-0.251001 0.379,-0.922 0.756,-1.845 1.135,-2.767999 1.361,1.514 1.615,3.783999 0.591,5.55 -1.132,1.944 -2.952999,2.061 -4.855999,2.664 -2.979,0.941999 -4.959,3.813 -6.964001,6.045 -2.358,2.629 -4.705,5.27 -7.048,7.913 -0.643,0.723999 -1.3560003,1.794 -2.1110004,2.329 C 4.957,34.514 2.299,31.452 4.168,29.524 m 0.916,-0.682 c -0.639,0.656999 -1.3839997,1.29 -1.367,2.29 0.019,1.132 0.975,2.062 2.106,2.048 1.197,-0.015 1.795,-1.03 2.507,-1.833 2.346,-2.646 4.695,-5.291 7.055,-7.926 1.907,-2.131001 3.707001,-4.365 5.978,-6.097 1.675,-1.059 3.875,-0.921 5.430001,-2.115 1.985001,-1.524001 2.354,-4.471001 0.792,-6.430001 -0.361001,0.887 -0.729001,1.773 -1.090001,2.66 -0.177,0.43 -1.687999,0.324001 -2.104,0.196 -1.6,-0.491999 -3.122998,-1.349 -4.68,-1.96 0.559,1.472 -0.201,3.284001 -0.818,4.616 -0.358,0.777001 -0.811001,1.864 -1.399,2.439001 -0.942,0.917 -1.896,1.825 -2.847001,2.737999 C 11.434,22.563 8.186,25.635 5.084,28.842 M 4.696,29.98 c 0.877,-0.905001 2.467,-0.356001 2.5950004,0.899 0.1399996,1.373 -1.5700004,2.207 -2.56,1.238 0.2230001,-0.205 1.046,0.361 1.573,0.142 0.8629999,-0.363002 1.0770001,-1.530002 0.4050002,-2.181 -0.6700001,-0.648002 -1.8299999,-0.4 -2.1669996,0.474 -0.204,0.528 0.386,1.347 0.188,1.565 C 4.136,31.546 4.122,30.571 4.696,29.98" />
            <path
               style="fill:#ffffff;fill-opacity:0.4;stroke-opacity:0.4"
               id="path98"
               d="M 27.62,8.548 C 27.587,8.509001 27.555,8.471001 27.519001,8.432 c -0.073,0.259 -0.354001,0.17 -0.497999,0.523 -0.231002,0.5649995 -0.465,1.13 -0.695999,1.695 -0.095,0.232 -0.179001,0.771 -0.455,0.802999 -0.427,0.049 -0.938,0.215 -1.341,0.044 -0.325001,-0.139 -0.526001,-0.583 -0.732,-0.86 -0.281,-0.378 -0.256001,-0.347 -0.068,-0.77 0.402,-0.905 0.805,-1.809 1.205,-2.714 -1.297001,-0.2140003 -2.707001,0.178 -3.691,1.056 -0.181999,0.16 -1.104,1.442 -1.101999,1.444 -0.268999,-0.111 -0.533001,-0.222 -0.801001,-0.3360005 0.029,0.062 0.063,0.1239995 0.092,0.1850005 -0.09,-0.016 -0.188,0.022 -0.275999,0.004 0.776001,1.519 -0.179001,3.621 -0.847,5.005 -0.34,0.705 -0.73,1.647999 -1.278,2.177001 -1.765,1.702999 -3.534,3.398 -5.295,5.103 -2.351,2.275 -4.716,4.543 -6.998,6.89 -0.35,0.358 -0.7600002,0.723 -1.061,1.122999 -0.711,0.944001 -0.5120001,2.343001 0.444,3.046999 0.8210003,0.604 2.23,0.705002 3.047,0.104 0.4180003,-0.308998 0.771,-0.870998 1.122,-1.269001 3.451,-3.896999 6.9,-7.802999 10.407,-11.653 0.524001,-0.577 1.042,-1.169 1.600001,-1.715 1.236999,-1.211 2.923,-1.683001 4.550001,-2.051001 C 28.266,15.494 30.046,11.393 27.62,8.548 M 4.859,31.991 C 3.7940001,30.953999 5.2450004,28.911 6.3840003,30.021 7.486,31.087 6.135,33.212 4.859,31.991" />
            <path
               style="fill:#ffffff;fill-opacity:0.4;stroke-opacity:0.4"
               id="path100"
               d="M 4.858,31.989 C 3.501,30.669 5.909,28.609001 6.705,30.481 L 25.719,11.471001 c -0.467001,0.054 -0.854,0.165 -1.289,-0.015 -0.326,-0.135 -0.676,-0.875 -0.891,-1.164 L 24.932,7.154 C 23.018,6.8259997 20.952,7.8669996 20.203,9.681 L 19.78,9.508 C 19.633001,9.445001 19.482,9.382 19.335001,9.318001 l 0.095,0.185 -0.275999,0.005 c 1.17,2.283 -2.021999,7.113001 -2.021999,7.113001 l -0.029,-0.01 c -0.517001,0.806 -1.559,1.507 -2.24,2.164999 -1.625,1.563999 -3.249001,3.131999 -4.866,4.704999 -1.562001,1.521 -3.1230005,3.041001 -4.6560005,4.589002 -0.4499998,0.454 -0.902,0.907998 -1.3319998,1.382999 C 2.9040027,30.388 3.0430026,32.182 4.263003,32.938 l 0.801,-0.799 C 4.985,32.094 4.918,32.046 4.858,31.989" />
          </g>
        </g>
      </g>
    </g>
  </g>
</svg>
